# xmcd
#
# Track frame offsets:
#	150
#	17376
#	40340
#	62913
#	89570
#	119980
#	142582
#	159240
#	178576
#	196120
#	209775
#	243191
#
# Disc length: 3791 seconds
#
# Revision: 0
# Processed by: cddbd v1.5.2PL0 Copyright (c) Steve Scherf et al.
# Submitted via: audiograbber 1.83.01
#
DISCID=a30ecd0c
DTITLE=Simon Thompson - Pay Your Dues
DYEAR=2011
DGENRE=Country
TTITLE0=Pay Your Dues
TTITLE1=All
TTITLE2=Raincloud
TTITLE3=Woman Worries
TTITLE4=Just Another
TTITLE5=The Deepest Sea
TTITLE6=Tinderbox
TTITLE7=Daddy
TTITLE8=Union
TTITLE9=Californian Snowstorm
TTITLE10=The Hard Ask
TTITLE11=Sea Of Angels
EXTD=
EXTT0=
EXTT1=
EXTT2=
EXTT3=
EXTT4=
EXTT5=
EXTT6=
EXTT7=
EXTT8=
EXTT9=
EXTT10=
EXTT11=
PLAYORDER=
